<svg width="3221" height="6944" viewBox="0 0 3221 6944" fill="none" xmlns="http://www.w3.org/2000/svg">
<path d="M1757.5 1036C1858 1034.5 2059.86 1054.77 1936.66 1210.5C1782.65 1405.17 2328.28 1557.37 2240.27 1405.17C2152.27 1252.98 1483.43 1426.41 2024.66 1684.79C2457.64 1891.49 1606.64 1945.52 1127.01 1946.7C959.149 1954.37 701.509 2031.31 1013.86 2277.71C1404.29 2585.7 2110.71 2716.69 2067.68 2904.32C2024.66 3091.94 480.643 3908 1013.86 3908C2187 3908 1118.14 4379.89 1579 4540C1719.55 4588.83 2313.95 4506.17 2283 4816C2225.34 5393.28 806.2 5119.2 963 5436C1159 5832 2283 5980 2313 6116" stroke="#07D38E" stroke-width="1.5" stroke-linecap="square"/>
<g filter="url(#filter0_f_1_8)">
<circle cx="1749" cy="1046" r="246" fill="#07D38E"/>
</g>
<g filter="url(#filter1_f_1_8)">
<circle cx="2175" cy="2952" r="246" fill="#07D38E"/>
</g>
<g filter="url(#filter2_f_1_8)">
<circle cx="1046" cy="4901" r="246" fill="#07D38E"/>
</g>
<g filter="url(#filter3_f_1_8)">
<circle cx="1094" cy="4936" r="246" fill="#07D38E"/>
</g>
<g filter="url(#filter4_f_1_8)">
<circle cx="2188" cy="5951" r="193" fill="#07D38E"/>
</g>
<path d="M1925.87 1192.39C1926 1191.44 1927.28 1191.2 1927.74 1192.05L1934.94 1205.29C1935.09 1205.57 1935.37 1205.76 1935.68 1205.81L1950.61 1207.87C1951.56 1208 1951.8 1209.28 1950.95 1209.74L1937.71 1216.94C1937.43 1217.09 1937.24 1217.37 1937.19 1217.68L1935.13 1232.61C1935 1233.56 1933.72 1233.8 1933.26 1232.95L1926.06 1219.71C1925.91 1219.43 1925.63 1219.24 1925.32 1219.2L1910.39 1217.13C1909.44 1217 1909.2 1215.72 1910.05 1215.26L1923.29 1208.06C1923.57 1207.91 1923.76 1207.64 1923.81 1207.32L1925.87 1192.39Z" fill="#07D38E"/>
<path d="M2024.27 1846.59C2025.05 1846.03 2026.1 1846.79 2025.81 1847.71L2022.06 1859.42C2021.96 1859.72 2022.01 1860.05 2022.2 1860.31L2029.4 1870.28C2029.96 1871.06 2029.2 1872.11 2028.28 1871.82L2016.57 1868.07C2016.27 1867.97 2015.94 1868.02 2015.68 1868.21L2005.71 1875.41C2004.93 1875.97 2003.88 1875.21 2004.17 1874.29L2007.92 1862.58C2008.02 1862.28 2007.97 1861.95 2007.78 1861.69L2000.58 1851.72C2000.02 1850.94 2000.78 1849.89 2001.7 1850.18L2013.41 1853.93C2013.71 1854.03 2014.04 1853.98 2014.3 1853.79L2024.27 1846.59Z" fill="#07D38E"/>
<path d="M1163.43 4045.98C1164.2 4045.4 1165.27 4046.15 1164.99 4047.07L1163.28 4052.78C1163.19 4053.08 1163.25 4053.41 1163.44 4053.67L1167.02 4058.43C1167.59 4059.21 1166.85 4060.27 1165.93 4059.99L1160.22 4058.28C1159.92 4058.19 1159.59 4058.25 1159.33 4058.44L1154.57 4062.02C1153.79 4062.6 1152.73 4061.85 1153.01 4060.93L1154.72 4055.22C1154.81 4054.92 1154.75 4054.59 1154.56 4054.33L1150.98 4049.57C1150.4 4048.79 1151.15 4047.73 1152.07 4048.01L1157.78 4049.72C1158.08 4049.81 1158.41 4049.75 1158.67 4049.56L1163.43 4045.98Z" fill="#07D38E"/>
<path d="M1398.62 2938.42C1398.55 2937.46 1399.75 2936.96 1400.38 2937.69L1404.27 2942.21C1404.48 2942.45 1404.79 2942.58 1405.1 2942.55L1411.05 2942.1C1412.01 2942.02 1412.51 2943.22 1411.78 2943.85L1407.26 2947.74C1407.02 2947.95 1406.9 2948.26 1406.92 2948.58L1407.37 2954.52C1407.45 2955.48 1406.25 2955.98 1405.62 2955.25L1401.73 2950.74C1401.52 2950.5 1401.21 2950.37 1400.89 2950.39L1394.95 2950.85C1393.99 2950.92 1393.49 2949.72 1394.22 2949.09L1398.73 2945.2C1398.97 2944.99 1399.1 2944.68 1399.08 2944.37L1398.62 2938.42Z" fill="#07D38E"/>
<path d="M1569.05 4294.89C1569.35 4293.97 1570.65 4293.97 1570.95 4294.89L1571.82 4297.54C1571.92 4297.84 1572.16 4298.08 1572.46 4298.18L1575.11 4299.05C1576.03 4299.35 1576.03 4300.65 1575.11 4300.95L1572.46 4301.82C1572.16 4301.92 1571.92 4302.16 1571.82 4302.46L1570.95 4305.11C1570.65 4306.03 1569.35 4306.03 1569.05 4305.11L1568.18 4302.46C1568.08 4302.16 1567.84 4301.92 1567.54 4301.82L1564.89 4300.95C1563.97 4300.65 1563.97 4299.35 1564.89 4299.05L1567.54 4298.18C1567.84 4298.08 1568.08 4297.84 1568.18 4297.54L1569.05 4294.89Z" fill="#07D38E"/>
<path d="M1676.91 3678.8C1677.47 3678.01 1678.71 3678.39 1678.73 3679.35L1678.8 3682.14C1678.81 3682.46 1678.97 3682.76 1679.23 3682.94L1681.51 3684.54C1682.3 3685.09 1681.93 3686.34 1680.96 3686.36L1678.17 3686.43C1677.86 3686.44 1677.56 3686.59 1677.38 3686.85L1675.78 3689.14C1675.22 3689.93 1673.98 3689.55 1673.96 3688.59L1673.89 3685.8C1673.88 3685.48 1673.72 3685.19 1673.46 3685L1671.18 3683.4C1670.39 3682.85 1670.76 3681.61 1671.73 3681.58L1674.52 3681.52C1674.83 3681.51 1675.13 3681.35 1675.31 3681.09L1676.91 3678.8Z" fill="#07D38E"/>
<path d="M1854.05 3039.89C1854.35 3038.97 1855.65 3038.97 1855.95 3039.89L1858.8 3048.56C1858.9 3048.86 1859.14 3049.1 1859.44 3049.2L1868.11 3052.05C1869.03 3052.35 1869.03 3053.65 1868.11 3053.95L1859.44 3056.8C1859.14 3056.9 1858.9 3057.14 1858.8 3057.44L1855.95 3066.11C1855.65 3067.03 1854.35 3067.03 1854.05 3066.11L1851.2 3057.44C1851.1 3057.14 1850.86 3056.9 1850.56 3056.8L1841.89 3053.95C1840.97 3053.65 1840.97 3052.35 1841.89 3052.05L1850.56 3049.2C1850.86 3049.1 1851.1 3048.86 1851.2 3048.56L1854.05 3039.89Z" fill="#07D38E"/>
<path d="M2167.05 4970.89C2167.35 4969.97 2168.65 4969.97 2168.95 4970.89L2169.82 4973.54C2169.92 4973.84 2170.16 4974.08 2170.46 4974.18L2173.11 4975.05C2174.03 4975.35 2174.03 4976.65 2173.11 4976.95L2170.46 4977.82C2170.16 4977.92 2169.92 4978.16 2169.82 4978.46L2168.95 4981.11C2168.65 4982.03 2167.35 4982.03 2167.05 4981.11L2166.18 4978.46C2166.08 4978.16 2165.84 4977.92 2165.54 4977.82L2162.89 4976.95C2161.97 4976.65 2161.97 4975.35 2162.89 4975.05L2165.54 4974.18C2165.84 4974.08 2166.08 4973.84 2166.18 4973.54L2167.05 4970.89Z" fill="#07D38E"/>
<path d="M1077.55 1886.89C1077.85 1885.97 1079.15 1885.97 1079.45 1886.89L1081.19 1892.17C1081.29 1892.48 1081.52 1892.71 1081.83 1892.81L1087.11 1894.55C1088.03 1894.85 1088.03 1896.15 1087.11 1896.45L1081.83 1898.19C1081.52 1898.29 1081.29 1898.52 1081.19 1898.83L1079.45 1904.11C1079.15 1905.03 1077.85 1905.03 1077.55 1904.11L1075.81 1898.83C1075.71 1898.52 1075.48 1898.29 1075.17 1898.19L1069.89 1896.45C1068.97 1896.15 1068.97 1894.85 1069.89 1894.55L1075.17 1892.81C1075.48 1892.71 1075.71 1892.48 1075.81 1892.17L1077.55 1886.89Z" fill="#07D38E"/>
<defs>
<filter id="filter0_f_1_8" x="703" y="0" width="2092" height="2092" filterUnits="userSpaceOnUse" color-interpolation-filters="sRGB">
<feFlood flood-opacity="0" result="BackgroundImageFix"/>
<feBlend mode="normal" in="SourceGraphic" in2="BackgroundImageFix" result="shape"/>
<feGaussianBlur stdDeviation="400" result="effect1_foregroundBlur_1_8"/>
</filter>
<filter id="filter1_f_1_8" x="1129" y="1906" width="2092" height="2092" filterUnits="userSpaceOnUse" color-interpolation-filters="sRGB">
<feFlood flood-opacity="0" result="BackgroundImageFix"/>
<feBlend mode="normal" in="SourceGraphic" in2="BackgroundImageFix" result="shape"/>
<feGaussianBlur stdDeviation="400" result="effect1_foregroundBlur_1_8"/>
</filter>
<filter id="filter2_f_1_8" x="0" y="3855" width="2092" height="2092" filterUnits="userSpaceOnUse" color-interpolation-filters="sRGB">
<feFlood flood-opacity="0" result="BackgroundImageFix"/>
<feBlend mode="normal" in="SourceGraphic" in2="BackgroundImageFix" result="shape"/>
<feGaussianBlur stdDeviation="400" result="effect1_foregroundBlur_1_8"/>
</filter>
<filter id="filter3_f_1_8" x="48" y="3890" width="2092" height="2092" filterUnits="userSpaceOnUse" color-interpolation-filters="sRGB">
<feFlood flood-opacity="0" result="BackgroundImageFix"/>
<feBlend mode="normal" in="SourceGraphic" in2="BackgroundImageFix" result="shape"/>
<feGaussianBlur stdDeviation="400" result="effect1_foregroundBlur_1_8"/>
</filter>
<filter id="filter4_f_1_8" x="1195" y="4958" width="1986" height="1986" filterUnits="userSpaceOnUse" color-interpolation-filters="sRGB">
<feFlood flood-opacity="0" result="BackgroundImageFix"/>
<feBlend mode="normal" in="SourceGraphic" in2="BackgroundImageFix" result="shape"/>
<feGaussianBlur stdDeviation="400" result="effect1_foregroundBlur_1_8"/>
</filter>
</defs>
</svg>
