<svg width="53" height="25" viewBox="0 0 53 25" fill="none" xmlns="http://www.w3.org/2000/svg">
<path fill-rule="evenodd" clip-rule="evenodd" d="M19.915 21.3427C24.3132 19.1252 28.4158 15.944 31.0719 12.4087C33.7279 8.87345 34.4054 5.6922 33.3392 3.47474C37.276 1.49003 41.4512 0.277466 45.0349 0.277466C52.6222 0.277466 54.6926 5.70893 49.659 12.4087C44.6255 19.1085 34.3938 24.5399 26.8065 24.5399C23.2228 24.5399 20.8696 23.3274 19.915 21.3427ZM19.915 21.3427C15.9782 23.3274 11.8031 24.5399 8.21934 24.5399C0.632006 24.5399 -1.43833 19.1085 3.59521 12.4087C8.62875 5.70893 18.8604 0.277466 26.4477 0.277466C30.0315 0.277466 32.3846 1.49003 33.3392 3.47474C28.941 5.6922 24.8384 8.87345 22.1824 12.4087C19.5263 15.944 18.8488 19.1252 19.915 21.3427Z" fill="#1A1E1C"/>
</svg>
