<svg width="53" height="25" viewBox="0 0 53 25" fill="none" xmlns="http://www.w3.org/2000/svg">
<path fill-rule="evenodd" clip-rule="evenodd" d="M19.9148 21.4112C24.313 19.1937 28.4156 16.0124 31.0716 12.4772C33.7277 8.94193 34.4052 5.76068 33.339 3.54322C37.2758 1.55851 41.4509 0.345947 45.0347 0.345947C52.622 0.345947 54.6923 5.77741 49.6588 12.4772C44.6252 19.177 34.3936 24.6084 26.8063 24.6084C23.2225 24.6084 20.8694 23.3959 19.9148 21.4112ZM19.9148 21.4112C15.978 23.3959 11.8028 24.6084 8.2191 24.6084C0.631762 24.6084 -1.43858 19.177 3.59497 12.4772C8.62851 5.77741 18.8602 0.345947 26.4475 0.345947C30.0312 0.345947 32.3844 1.55851 33.339 3.54322C28.9408 5.76068 24.8382 8.94193 22.1821 12.4772C19.5261 16.0124 18.8486 19.1937 19.9148 21.4112Z" fill="#424242"/>
</svg>
