<svg width="24" height="25" viewBox="0 0 24 25" fill="none" xmlns="http://www.w3.org/2000/svg">
<path d="M10.4962 4.61963C3.62469 5.95296 3 12.6196 3 12.6196M3 12.6196V16.8715C3 17.5667 3 17.9144 3.05736 18.2034C3.2937 19.3947 4.22493 20.3259 5.41618 20.5623C5.70527 20.6196 6.05289 20.6196 6.74812 20.6196V20.6196C7.44335 20.6196 7.79097 20.6196 8.08006 20.5623C9.2713 20.3259 10.2025 19.3947 10.4389 18.2034C10.4962 17.9144 10.4962 17.5667 10.4962 16.8715V16.6196C10.4962 15.6897 10.4962 15.2247 10.394 14.8432C10.1166 13.8079 9.30797 12.9993 8.2727 12.7219C7.8912 12.6196 7.42621 12.6196 6.49624 12.6196H3Z" stroke="white" stroke-width="1.5"/>
<path d="M21 4.61963C14.1285 5.95296 13.5038 12.6196 13.5038 12.6196M13.5038 12.6196V16.8715C13.5038 17.5667 13.5038 17.9144 13.5611 18.2034C13.7975 19.3947 14.7287 20.3259 15.92 20.5623C16.2091 20.6196 16.5567 20.6196 17.2519 20.6196V20.6196C17.9471 20.6196 18.2948 20.6196 18.5838 20.5623C19.7751 20.3259 20.7063 19.3947 20.9427 18.2034C21 17.9144 21 17.5667 21 16.8715V16.6196C21 15.6897 21 15.2247 20.8978 14.8432C20.6204 13.8079 19.8118 12.9993 18.7765 12.7219C18.395 12.6196 17.93 12.6196 17 12.6196H13.5038Z" stroke="white" stroke-width="1.5"/>
</svg>
