<svg width="32" height="33" viewBox="0 0 32 33" fill="none" xmlns="http://www.w3.org/2000/svg">
<path d="M14.5466 6.61055C15.3791 5.7131 15.7954 5.26438 16.1334 5.20885C16.2665 5.18699 16.329 5.18713 16.462 5.20958C16.7998 5.2666 17.2157 5.71894 18.0475 6.62361C18.8973 7.54791 19.9766 8.48292 21.0958 8.83377C21.9976 9.11644 23.219 9.11198 24.2027 9.03914C24.964 8.98277 25.3447 8.95458 25.6088 9.10435C25.6967 9.15416 25.7708 9.21201 25.8403 9.28519C26.0496 9.50526 26.1064 9.835 26.22 10.4945C26.6253 12.8477 27.1135 17.1793 25.8861 19.9966C24.755 22.5925 21.6861 25.0074 19.3235 26.5698C18.2123 27.3047 17.6567 27.6722 16.7458 27.7937C16.5054 27.8258 16.0861 27.8341 15.8446 27.8115C14.9297 27.7261 14.3591 27.3803 13.2179 26.6888C10.6876 25.1556 7.33454 22.7187 6.12637 19.9966C4.88134 17.1914 5.37378 12.866 5.78517 10.5077C5.90123 9.84242 5.95927 9.50976 6.17238 9.28911C6.24293 9.21607 6.31889 9.15784 6.40776 9.1087C6.67622 8.96025 7.05775 8.99476 7.82081 9.06377C8.96118 9.1669 10.446 9.19566 11.5154 8.83377C12.6217 8.45937 13.6964 7.52702 14.5466 6.61055Z" fill="white" stroke="white" stroke-width="1.5" stroke-linejoin="round"/>
</svg>
