<svg width="32" height="33" viewBox="0 0 32 33" fill="none" xmlns="http://www.w3.org/2000/svg">
<path d="M12.6667 28.3687H6.66667V24.0163C6.66667 21.7664 6.66667 20.6415 7.23962 19.8529C7.42465 19.5982 7.64863 19.3743 7.90331 19.1892C8.69191 18.6163 9.81683 18.6163 12.0667 18.6163H12.6667V18.502C12.6667 16.0097 12.6667 14.7635 13.2026 13.8353C13.5536 13.2272 14.0586 12.7223 14.6667 12.3712C15.5949 11.8353 16.841 11.8353 19.3333 11.8353V7.36865C19.3333 5.7118 20.6765 4.36865 22.3333 4.36865C23.9902 4.36865 25.3333 5.7118 25.3333 7.36865V28.3687H19.3333H12.6667Z" fill="white"/>
<path d="M28 28.3687H25.3333M4 28.3687H6.66667M19.3333 28.3687H12.6667M19.3333 28.3687V11.8353M19.3333 28.3687H25.3333M12.6667 28.3687H6.66667M12.6667 28.3687V18.6163M6.66667 28.3687V24.0163C6.66667 21.7664 6.66667 20.6415 7.23962 19.8529C7.42465 19.5982 7.64863 19.3743 7.90331 19.1892C8.69191 18.6163 9.81683 18.6163 12.0667 18.6163H12.6667M12.6667 18.6163V18.502C12.6667 16.0097 12.6667 14.7635 13.2026 13.8353C13.5536 13.2272 14.0586 12.7223 14.6667 12.3712C15.5949 11.8353 16.841 11.8353 19.3333 11.8353V11.8353M19.3333 11.8353V7.36865C19.3333 5.7118 20.6765 4.36865 22.3333 4.36865V4.36865C23.9902 4.36865 25.3333 5.7118 25.3333 7.36865V28.3687" stroke="white" stroke-width="1.5" stroke-linecap="round"/>
</svg>
