<svg width="32" height="33" viewBox="0 0 32 33" fill="none" xmlns="http://www.w3.org/2000/svg">
<path d="M27.75 16.3686C27.8881 16.3686 28.0003 16.4806 27.9974 16.6186C27.9531 18.7448 27.3444 20.8228 26.2317 22.6386C25.0754 24.5255 23.4198 26.056 21.4479 27.0607C19.476 28.0654 17.2647 28.5053 15.0585 28.3316C12.8523 28.158 10.737 27.3776 8.94658 26.0768C7.15617 24.776 5.76036 23.0054 4.91345 20.9608C4.06655 18.9162 3.80154 16.6772 4.14774 14.4914C4.49394 12.3056 5.43786 10.2581 6.87513 8.57523C8.25824 6.95582 10.0464 5.73483 12.0548 5.03566C12.1852 4.99027 12.3264 5.06238 12.3691 5.1937L15.4948 14.8139C15.7961 15.7409 16.66 16.3686 17.6347 16.3686H27.75Z" fill="white" stroke="white" stroke-width="1.5"/>
<path d="M17.1445 4.96538C17.1018 4.83406 17.1736 4.69259 17.3062 4.65442C18.3363 4.35814 19.4199 4.29099 20.4805 4.45898C21.6235 4.64002 22.7075 5.08901 23.6437 5.76924C24.58 6.44947 25.342 7.34162 25.8674 8.37276C26.3549 9.32958 26.6259 10.3809 26.6624 11.4521C26.6671 11.5901 26.5547 11.702 26.4167 11.702L20.2415 11.702C19.7 11.702 19.22 11.3533 19.0527 10.8383L17.1445 4.96538Z" fill="white" stroke="white" stroke-width="1.5"/>
</svg>
