<svg width="27" height="48" viewBox="0 0 27 48" fill="none" xmlns="http://www.w3.org/2000/svg">
<path fill-rule="evenodd" clip-rule="evenodd" d="M15.5577 1.29005C16.3705 0.709213 17.5002 0.897199 18.081 1.70993C21.1738 6.03742 24.8627 13.4182 25.944 21.6393C27.0327 29.9165 25.4791 39.1569 17.8968 46.8396C17.1951 47.5506 16.0499 47.5581 15.3389 46.8564C14.6279 46.1547 14.6204 45.0095 15.3221 44.2985C21.9351 37.5979 23.3388 29.5726 22.3574 22.111C21.3686 14.5932 17.9598 7.76194 15.1379 3.81333C14.557 3.0006 14.745 1.87089 15.5577 1.29005ZM7.71757 7.92375C8.52944 7.3417 9.65943 7.52801 10.2415 8.33988C12.4246 11.3851 15.0224 16.5645 15.7856 22.3482C16.5562 28.1889 15.4566 34.7553 10.0568 40.2095C9.35402 40.9194 8.20879 40.9251 7.49889 40.2223C6.789 39.5195 6.78326 38.3742 7.48608 37.6643C11.9139 33.192 12.8616 27.8427 12.1991 22.8214C11.5291 17.7431 9.21308 13.1141 7.30144 10.4477C6.71939 9.63578 6.9057 8.50579 7.71757 7.92375ZM1.68139 15.1638C2.49048 14.5779 3.62134 14.7589 4.20724 15.568C5.39931 17.2142 6.80895 19.993 7.22569 23.12C7.65038 26.3066 7.04368 29.9584 4.02123 32.9808C3.31487 33.6872 2.16962 33.6872 1.46325 32.9808C0.756888 32.2745 0.756888 31.1292 1.46325 30.4229C3.50535 28.3808 3.95376 25.9531 3.63987 23.5979C3.31804 21.183 2.1954 18.9576 1.27725 17.6897C0.691355 16.8806 0.872293 15.7497 1.68139 15.1638Z" fill="white"/>
</svg>
