<svg width="124" height="33" viewBox="0 0 124 33" fill="none" xmlns="http://www.w3.org/2000/svg">
<path d="M20.0465 15.4871C20.0139 11.9547 23.013 10.2362 23.1501 10.1562C21.4516 7.74169 18.8189 7.41179 17.8938 7.38549C15.6827 7.15862 13.5379 8.67549 12.4115 8.67549C11.2627 8.67549 9.5282 7.40741 7.65881 7.44467C5.25322 7.48084 3.00277 8.83879 1.7685 10.9475C-0.778725 15.2471 1.12101 21.5656 3.56145 25.041C4.78222 26.7431 6.20871 28.6436 8.07585 28.5767C9.90252 28.5033 10.5849 27.4412 12.7892 27.4412C14.9734 27.4412 15.6141 28.5767 17.5183 28.534C19.4788 28.5033 20.713 26.8242 21.8911 25.1068C23.3019 23.1559 23.8684 21.2346 23.8909 21.1359C23.8448 21.1206 20.0835 19.721 20.0465 15.4871Z" fill="white"/>
<path d="M16.4493 5.09923C17.4318 3.9013 18.104 2.27154 17.9174 0.617676C16.4954 0.679052 14.7171 1.57668 13.693 2.7483C12.787 3.78074 11.9776 5.47297 12.1867 7.06436C13.7841 7.18054 15.4241 6.27853 16.4493 5.09923Z" fill="white"/>
<path d="M41.3168 4.77373C41.3168 6.06372 40.92 7.03478 40.1275 7.6869C39.3934 8.28861 38.3503 8.59001 36.9991 8.59001C36.3291 8.59001 35.7558 8.56151 35.2758 8.50452V1.45613C35.902 1.35749 36.5764 1.30707 37.3048 1.30707C38.5919 1.30707 39.5621 1.57998 40.2163 2.12578C40.9492 2.74283 41.3168 3.62512 41.3168 4.77373ZM40.0746 4.80551C40.0746 3.96926 39.8476 3.3281 39.3934 2.88093C38.9393 2.43486 38.2761 2.21127 37.4026 2.21127C37.0317 2.21127 36.7158 2.23538 36.4539 2.2858V7.64416C36.5989 7.66608 36.8642 7.67594 37.2498 7.67594C38.1513 7.67594 38.8471 7.43153 39.3372 6.94272C39.8273 6.4539 40.0746 5.7415 40.0746 4.80551Z" fill="white"/>
<path d="M47.9029 5.90041C47.9029 6.69502 47.6702 7.34604 47.2048 7.85678C46.717 8.38176 46.0706 8.64371 45.2635 8.64371C44.4856 8.64371 43.8663 8.39272 43.4042 7.88856C42.9434 7.3855 42.7129 6.75091 42.7129 5.9859C42.7129 5.18582 42.9501 4.52932 43.4267 4.01968C43.9033 3.51003 44.5441 3.25467 45.3512 3.25467C46.1291 3.25467 46.7541 3.50565 47.2273 4.00871C47.677 4.49753 47.9029 5.12883 47.9029 5.90041ZM46.681 5.93768C46.681 5.46092 46.5753 5.05211 46.3651 4.71125C46.1178 4.29916 45.766 4.09311 45.3085 4.09311C44.8352 4.09311 44.4755 4.29916 44.2282 4.71125C44.0169 5.05211 43.9123 5.46749 43.9123 5.9585C43.9123 6.43526 44.018 6.84407 44.2282 7.18493C44.4834 7.59703 44.8386 7.80308 45.2972 7.80308C45.7469 7.80308 46.0998 7.59374 46.3539 7.17397C46.572 6.82654 46.681 6.41444 46.681 5.93768Z" fill="white"/>
<path d="M56.7339 3.35988L55.0758 8.52644H53.9967L53.3099 6.28292C53.1356 5.72286 52.994 5.16609 52.8838 4.61371H52.8625C52.7602 5.18144 52.6185 5.73711 52.4364 6.28292L51.7069 8.52644H50.6154L49.0562 3.35988H50.2669L50.8661 5.81602C51.0111 6.3969 51.1302 6.95038 51.2258 7.47427H51.2471C51.3348 7.04245 51.4798 6.49226 51.6844 5.82698L52.4364 3.36098H53.3964L54.117 5.77437C54.2912 6.36293 54.4328 6.92956 54.5419 7.47537H54.5745C54.6543 6.94381 54.7746 6.37718 54.9342 5.77437L55.5772 3.36098H56.7339V3.35988Z" fill="white"/>
<path d="M62.8411 8.52645H61.6631V5.56724C61.6631 4.65536 61.3079 4.19943 60.5952 4.19943C60.2456 4.19943 59.9634 4.32437 59.7442 4.57536C59.5273 4.82634 59.4171 5.12226 59.4171 5.46093V8.52535H58.2391V4.8362C58.2391 4.38246 58.2245 3.89035 58.1964 3.3577H59.2316L59.2867 4.16545H59.3193C59.4565 3.91447 59.6611 3.70732 59.9297 3.54183C60.249 3.34893 60.6064 3.25138 60.9976 3.25138C61.4922 3.25138 61.9036 3.40702 62.2308 3.71938C62.6377 4.10188 62.8411 4.6729 62.8411 5.43133V8.52645Z" fill="white"/>
<path d="M66.0898 8.52643H64.9129V0.989224H66.0898V8.52643Z" fill="white"/>
<path d="M73.0256 5.90041C73.0256 6.69502 72.7929 7.34604 72.3275 7.85678C71.8396 8.38176 71.1921 8.64371 70.3862 8.64371C69.6071 8.64371 68.9878 8.39272 68.5269 7.88856C68.066 7.3855 67.8356 6.75091 67.8356 5.9859C67.8356 5.18582 68.0727 4.52932 68.5494 4.01968C69.026 3.51003 69.6667 3.25467 70.4727 3.25467C71.2517 3.25467 71.8756 3.50565 72.35 4.00871C72.7996 4.49753 73.0256 5.12883 73.0256 5.90041ZM71.8025 5.93768C71.8025 5.46092 71.6969 5.05211 71.4866 4.71125C71.2405 4.29916 70.8875 4.09311 70.4311 4.09311C69.9567 4.09311 69.597 4.29916 69.3508 4.71125C69.1395 5.05211 69.035 5.46749 69.035 5.9585C69.035 6.43526 69.1406 6.84407 69.3508 7.18493C69.606 7.59703 69.9612 7.80308 70.4199 7.80308C70.8695 7.80308 71.2214 7.59374 71.4754 7.17397C71.6946 6.82654 71.8025 6.41444 71.8025 5.93768Z" fill="white"/>
<path d="M78.727 8.52644H77.6692L77.5815 7.93131H77.5489C77.187 8.40588 76.671 8.64371 76.0011 8.64371C75.5008 8.64371 75.0962 8.48698 74.7915 8.17572C74.515 7.89295 74.3767 7.54113 74.3767 7.12355C74.3767 6.49226 74.6465 6.01111 75.1894 5.67793C75.7313 5.34474 76.4934 5.18144 77.4748 5.18911V5.09266C77.4748 4.41204 77.1083 4.07228 76.3743 4.07228C75.8515 4.07228 75.3907 4.20052 74.9927 4.45479L74.7533 3.70074C75.2457 3.40372 75.8538 3.25467 76.571 3.25467C77.9559 3.25467 78.6506 3.96707 78.6506 5.39187V7.29453C78.6506 7.81075 78.6764 8.22175 78.727 8.52644ZM77.504 6.75091V5.95412C76.2045 5.9322 75.5548 6.27963 75.5548 6.99532C75.5548 7.26494 75.629 7.4666 75.7807 7.60141C75.9325 7.73622 76.1258 7.80308 76.3563 7.80308C76.6148 7.80308 76.8565 7.72307 77.0768 7.56415C77.2983 7.40413 77.4343 7.20137 77.4849 6.95258C77.4972 6.89668 77.504 6.82873 77.504 6.75091Z" fill="white"/>
<path d="M85.4211 8.52643H84.3756L84.3206 7.69676H84.288C83.9541 8.32806 83.3853 8.64371 82.5861 8.64371C81.9476 8.64371 81.4159 8.3993 80.9943 7.91048C80.5728 7.42166 80.3626 6.78708 80.3626 6.00782C80.3626 5.17157 80.5908 4.49424 81.0494 3.97693C81.4934 3.49469 82.0375 3.25357 82.685 3.25357C83.3965 3.25357 83.8945 3.48701 84.1778 3.95501H84.2003V0.989224H85.3795V7.13451C85.3795 7.63758 85.393 8.10119 85.4211 8.52643ZM84.2003 6.34758V5.48612C84.2003 5.33707 84.189 5.21651 84.1677 5.12444C84.1014 4.84825 83.9586 4.6159 83.7416 4.42848C83.5224 4.24106 83.2583 4.14681 82.9536 4.14681C82.5141 4.14681 82.1701 4.31669 81.9172 4.65755C81.6665 4.9984 81.5395 5.43351 81.5395 5.96508C81.5395 6.47581 81.6598 6.8901 81.9015 7.20904C82.1567 7.5488 82.5006 7.71868 82.9312 7.71868C83.3179 7.71868 83.627 7.5773 83.8619 7.29343C84.089 7.03149 84.2003 6.71584 84.2003 6.34758Z" fill="white"/>
<path d="M95.4964 5.90041C95.4964 6.69502 95.2637 7.34604 94.7983 7.85678C94.3105 8.38176 93.6653 8.64371 92.857 8.64371C92.0803 8.64371 91.4609 8.39272 90.9977 7.88856C90.5369 7.3855 90.3064 6.75091 90.3064 5.9859C90.3064 5.18582 90.5436 4.52932 91.0202 4.01968C91.4968 3.51003 92.1376 3.25467 92.9458 3.25467C93.7226 3.25467 94.3487 3.50565 94.8208 4.00871C95.2705 4.49753 95.4964 5.12883 95.4964 5.90041ZM94.2756 5.93768C94.2756 5.46092 94.17 5.05211 93.9598 4.71125C93.7113 4.29916 93.3606 4.09311 92.902 4.09311C92.4299 4.09311 92.0701 4.29916 91.8217 4.71125C91.6104 5.05211 91.5058 5.46749 91.5058 5.9585C91.5058 6.43526 91.6115 6.84407 91.8217 7.18493C92.0769 7.59703 92.4321 7.80308 92.8907 7.80308C93.3404 7.80308 93.6945 7.59374 93.9485 7.17397C94.1655 6.82654 94.2756 6.41444 94.2756 5.93768Z" fill="white"/>
<path d="M101.831 8.52645H100.654V5.56724C100.654 4.65536 100.299 4.19943 99.5848 4.19943C99.2352 4.19943 98.953 4.32437 98.735 4.57536C98.5169 4.82634 98.4078 5.12226 98.4078 5.46093V8.52535H97.2287V4.8362C97.2287 4.38246 97.2152 3.89035 97.1871 3.3577H98.2212L98.2763 4.16545H98.3089C98.4472 3.91447 98.6518 3.70732 98.9193 3.54183C99.2397 3.34893 99.596 3.25138 99.9883 3.25138C100.482 3.25138 100.893 3.40702 101.22 3.71938C101.628 4.10188 101.831 4.6729 101.831 5.43133V8.52645Z" fill="white"/>
<path d="M109.759 4.22025H108.462V6.73009C108.462 7.36797 108.692 7.6869 109.149 7.6869C109.36 7.6869 109.535 7.66937 109.674 7.6332L109.704 8.50452C109.471 8.59001 109.166 8.63275 108.789 8.63275C108.324 8.63275 107.962 8.49466 107.7 8.21847C107.437 7.94227 107.306 7.47757 107.306 6.82545V4.22025H106.532V3.35989H107.306V2.41294L108.461 2.07318V3.35879H109.758V4.22025H109.759Z" fill="white"/>
<path d="M115.996 8.52643H114.816V5.58915C114.816 4.66303 114.461 4.19942 113.75 4.19942C113.203 4.19942 112.83 4.46794 112.626 5.00498C112.591 5.11787 112.57 5.25596 112.57 5.41817V8.52534H111.394V0.989224H112.57V4.10297H112.593C112.964 3.53633 113.496 3.25357 114.185 3.25357C114.673 3.25357 115.076 3.4092 115.396 3.72156C115.796 4.11064 115.996 4.68933 115.996 5.45434V8.52643Z" fill="white"/>
<path d="M122.429 5.69874C122.429 5.90479 122.413 6.07796 122.385 6.21935H118.852C118.868 6.73008 119.036 7.11916 119.363 7.38878C119.662 7.6299 120.048 7.75046 120.52 7.75046C121.043 7.75046 121.519 7.66936 121.949 7.50605L122.133 8.30394C121.631 8.51657 121.039 8.62288 120.355 8.62288C119.534 8.62288 118.888 8.38724 118.42 7.91596C117.95 7.44468 117.718 6.81228 117.718 6.01878C117.718 5.23952 117.935 4.59069 118.372 4.07337C118.828 3.52099 119.445 3.2448 120.224 3.2448C120.987 3.2448 121.566 3.52099 121.957 4.07337C122.273 4.51177 122.429 5.05429 122.429 5.69874ZM121.305 5.40173C121.314 5.06087 121.236 4.76714 121.077 4.51945C120.872 4.20051 120.561 4.04049 120.139 4.04049C119.755 4.04049 119.441 4.19613 119.202 4.50849C119.006 4.75728 118.89 5.0543 118.852 5.40173H121.305Z" fill="white"/>
<path d="M46.482 28.3323H43.9292L42.5308 24.048H37.6702L36.3381 28.3323H33.8527L38.6684 13.7467H41.6427L46.482 28.3323ZM42.1093 22.2506L40.8446 18.4419C40.7109 18.0529 40.4602 17.1366 40.0904 15.6943H40.0454C39.8981 16.3146 39.6609 17.2309 39.335 18.4419L38.0928 22.2506H42.1093Z" fill="white"/>
<path d="M58.8663 22.9444C58.8663 24.733 58.3706 26.1469 57.3791 27.1848C56.4911 28.1087 55.3883 28.5701 54.072 28.5701C52.6511 28.5701 51.6304 28.0725 51.0088 27.0774H50.9638V32.6177H48.5672V21.2773C48.5672 20.1528 48.5369 18.9987 48.4784 17.8151H50.5861L50.7199 19.4821H50.7649C51.5641 18.2261 52.777 17.5991 54.4047 17.5991C55.6772 17.5991 56.7395 18.0891 57.5893 19.07C58.4414 20.052 58.8663 21.3431 58.8663 22.9444ZM56.4247 23.0298C56.4247 22.0062 56.1887 21.1623 55.7143 20.4981C55.1961 19.8054 54.5003 19.4591 53.628 19.4591C53.0367 19.4591 52.4994 19.652 52.0194 20.0323C51.5382 20.4159 51.2235 20.9167 51.0762 21.5371C51.002 21.8264 50.9649 22.0632 50.9649 22.2495V24.0031C50.9649 24.7681 51.2055 25.4136 51.6866 25.9408C52.1677 26.468 52.7927 26.731 53.5616 26.731C54.4643 26.731 55.1669 26.3913 55.6693 25.714C56.1729 25.0355 56.4247 24.1412 56.4247 23.0298Z" fill="white"/>
<path d="M71.273 22.9444C71.273 24.733 70.7773 26.1469 69.7847 27.1848C68.8978 28.1087 67.7951 28.5701 66.4787 28.5701C65.0579 28.5701 64.0372 28.0725 63.4167 27.0774H63.3717V32.6177H60.9751V21.2773C60.9751 20.1528 60.9448 18.9987 60.8863 17.8151H62.994L63.1278 19.4821H63.1727C63.9709 18.2261 65.1838 17.5991 66.8126 17.5991C68.084 17.5991 69.1462 18.0891 69.9983 19.07C70.847 20.052 71.273 21.3431 71.273 22.9444ZM68.8315 23.0298C68.8315 22.0062 68.5943 21.1623 68.1199 20.4981C67.6017 19.8054 66.9081 19.4591 66.0347 19.4591C65.4423 19.4591 64.9061 19.652 64.425 20.0323C63.9439 20.4159 63.6302 20.9167 63.483 21.5371C63.4099 21.8264 63.3717 22.0632 63.3717 22.2495V24.0031C63.3717 24.7681 63.6123 25.4136 64.0911 25.9408C64.5723 26.4669 65.1973 26.731 65.9684 26.731C66.8711 26.731 67.5736 26.3913 68.0761 25.714C68.5797 25.0355 68.8315 24.1412 68.8315 23.0298Z" fill="white"/>
<path d="M85.1445 24.242C85.1445 25.4827 84.7027 26.4921 83.8158 27.2714C82.8412 28.123 81.4844 28.5482 79.7409 28.5482C78.1312 28.5482 76.8407 28.2457 75.8639 27.6396L76.4192 25.692C77.4714 26.3124 78.6258 26.6236 79.8837 26.6236C80.7863 26.6236 81.4889 26.4242 81.9936 26.0274C82.4961 25.6306 82.7468 25.098 82.7468 24.4338C82.7468 23.842 82.5399 23.3433 82.1252 22.9389C81.7126 22.5344 81.0235 22.1585 80.0613 21.8111C77.4421 20.8587 76.1337 19.4634 76.1337 17.6287C76.1337 16.4297 76.5923 15.4466 77.5107 14.6816C78.4257 13.9155 79.6465 13.533 81.173 13.533C82.5343 13.533 83.6652 13.7642 84.5678 14.2256L83.9687 16.1305C83.1256 15.6833 82.1724 15.4597 81.1056 15.4597C80.2625 15.4597 79.6038 15.6625 79.1317 16.0658C78.7326 16.4264 78.5325 16.8659 78.5325 17.3865C78.5325 17.963 78.7607 18.4398 79.2193 18.8146C79.6184 19.1609 80.3435 19.5358 81.3956 19.9402C82.6827 20.4455 83.6281 21.0362 84.2362 21.7135C84.8421 22.3887 85.1445 23.2337 85.1445 24.242Z" fill="white"/>
<path d="M93.0683 19.5686H90.4267V24.6749C90.4267 25.9737 90.8921 26.6225 91.8251 26.6225C92.2533 26.6225 92.6086 26.5863 92.8896 26.514L92.9559 28.2884C92.4838 28.4605 91.8622 28.5471 91.0921 28.5471C90.1457 28.5471 89.406 28.2654 88.872 27.7032C88.3403 27.1398 88.0728 26.1951 88.0728 24.8678V19.5665H86.4991V17.8128H88.0728V15.8872L90.4267 15.1945V17.8128H93.0683V19.5686Z" fill="white"/>
<path d="M104.987 22.9871C104.987 24.6037 104.513 25.931 103.566 26.9689C102.574 28.0375 101.256 28.5701 99.614 28.5701C98.0312 28.5701 96.7711 28.0583 95.8314 27.0346C94.8916 26.011 94.4217 24.7188 94.4217 23.1614C94.4217 21.5316 94.9051 20.1967 95.8752 19.1588C96.8431 18.1197 98.1493 17.6002 99.7916 17.6002C101.374 17.6002 102.648 18.1121 103.609 19.1368C104.529 20.1309 104.987 21.4143 104.987 22.9871ZM102.501 23.0627C102.501 22.0927 102.288 21.2609 101.858 20.5671C101.355 19.7276 100.637 19.3089 99.7061 19.3089C98.7428 19.3089 98.011 19.7287 97.5085 20.5671C97.078 21.262 96.8655 22.107 96.8655 23.1066C96.8655 24.0765 97.078 24.9084 97.5085 25.6011C98.0267 26.4406 98.7507 26.8593 99.6848 26.8593C100.6 26.8593 101.318 26.4318 101.836 25.5791C102.278 24.8722 102.501 24.0316 102.501 23.0627Z" fill="white"/>
<path d="M112.777 19.8701C112.54 19.8273 112.287 19.8054 112.022 19.8054C111.179 19.8054 110.527 20.1156 110.068 20.737C109.669 21.285 109.469 21.9777 109.469 22.8139V28.3323H107.074L107.096 21.1272C107.096 19.915 107.066 18.8113 107.006 17.8162H109.094L109.181 19.8284H109.248C109.5 19.1368 109.9 18.5801 110.446 18.1625C110.98 17.7866 111.556 17.5991 112.178 17.5991C112.4 17.5991 112.6 17.6145 112.777 17.6419V19.8701Z" fill="white"/>
<path d="M123.496 22.5761C123.496 22.9948 123.467 23.3477 123.408 23.6359H116.218C116.246 24.6749 116.594 25.4695 117.261 26.0175C117.867 26.5074 118.651 26.7529 119.613 26.7529C120.677 26.7529 121.649 26.5875 122.522 26.2554L122.898 27.8774C121.877 28.3115 120.672 28.5274 119.281 28.5274C117.609 28.5274 116.296 28.0473 115.34 27.0883C114.387 26.1293 113.909 24.8415 113.909 23.226C113.909 21.6401 114.353 20.3194 115.242 19.2662C116.173 18.1417 117.431 17.5794 119.014 17.5794C120.568 17.5794 121.745 18.1417 122.545 19.2662C123.177 20.1594 123.496 21.2642 123.496 22.5761ZM121.21 21.97C121.226 21.2773 121.07 20.6789 120.745 20.1736C120.33 19.5237 119.693 19.1993 118.835 19.1993C118.052 19.1993 117.414 19.516 116.927 20.1517C116.528 20.657 116.291 21.2631 116.218 21.9689H121.21V21.97Z" fill="white"/>
</svg>
