<svg width="34" height="33" viewBox="0 0 34 33" fill="none" xmlns="http://www.w3.org/2000/svg">
<path fill-rule="evenodd" clip-rule="evenodd" d="M31.6349 0.88752C32.5804 0.482779 33.3735 0.613772 33.4063 1.1801C33.5814 4.19559 32.6284 9.33866 29.1778 15.0673C25.7037 20.8351 19.6402 27.2739 9.63461 32.6274C8.70864 33.1228 7.80097 33.1281 7.60726 32.6391C7.41355 32.1502 8.00715 31.3521 8.93311 30.8567C17.6595 26.1876 22.9687 20.5954 26.1005 15.396C29.2559 10.1575 30.1423 5.39727 29.9826 2.6458C29.9497 2.07947 30.6895 1.29226 31.6349 0.88752ZM21.9751 5.51002C22.9205 5.10444 23.7147 5.23426 23.749 5.79999C23.8775 7.92196 23.216 11.531 20.7903 15.5613C18.3407 19.6312 14.0353 24.2068 6.91884 28.0074C5.99257 28.5021 5.08583 28.5061 4.89357 28.0163C4.70131 27.5266 5.29633 26.7286 6.2226 26.2339C12.0581 23.1175 15.6065 19.39 17.7124 15.891C19.8423 12.3523 20.438 9.12678 20.3254 7.26873C20.2911 6.703 21.0297 5.9156 21.9751 5.51002ZM13.4214 10.5551C14.3666 10.1468 15.1643 10.2729 15.2031 10.8367C15.282 11.9838 14.9396 13.9201 13.6314 16.0991C12.2983 18.3196 9.90771 20.8642 5.94029 22.9703C5.01307 23.4625 4.10932 23.4625 3.9217 22.9703C3.73408 22.4781 4.33365 21.6801 5.26086 21.1879C7.94142 19.7649 9.5662 18.0733 10.5515 16.4321C11.5618 14.7494 11.8409 13.1986 11.7802 12.3151C11.7414 11.7513 12.4762 10.9633 13.4214 10.5551ZM5.57736 15.7772C5.05182 15.7772 4.34315 16.1534 3.9945 16.6174C3.64586 17.0815 3.78925 17.4577 4.31479 17.4577C4.84033 17.4577 5.549 17.0815 5.89764 16.6174C6.24629 16.1534 6.1029 15.7772 5.57736 15.7772ZM1.13979 16.6174C2.53439 14.7612 5.36906 13.2564 7.47121 13.2564C9.57336 13.2564 10.147 14.7612 8.75236 16.6174C7.35776 18.4737 4.52309 19.9785 2.42093 19.9785C0.318784 19.9785 -0.254802 18.4737 1.13979 16.6174Z" fill="white"/>
</svg>
