<svg width="34" height="33" viewBox="0 0 34 33" fill="none" xmlns="http://www.w3.org/2000/svg">
<path fill-rule="evenodd" clip-rule="evenodd" d="M31.6543 0.580879C32.5998 0.176138 33.3929 0.307131 33.4257 0.873459C33.6008 3.88895 32.6479 9.03202 29.1973 14.7606C25.7231 20.5284 19.6596 26.9673 9.65402 32.3208C8.72805 32.8162 7.82038 32.8214 7.62667 32.3325C7.43296 31.8435 8.02656 31.0455 8.95252 30.5501C17.6789 25.881 22.9881 20.2888 26.1199 15.0894C29.2754 9.85082 30.1617 5.09063 30.002 2.33916C29.9691 1.77283 30.7089 0.98562 31.6543 0.580879ZM21.9945 5.20338C22.9399 4.7978 23.7341 4.92762 23.7684 5.49335C23.897 7.61532 23.2354 11.2244 20.8097 15.2546C18.3601 19.3246 14.0547 23.9002 6.93825 27.7008C6.01198 28.1954 5.10524 28.1994 4.91298 27.7097C4.72072 27.2199 5.31574 26.4219 6.24201 25.9273C12.0775 22.8108 15.6259 19.0833 17.7318 15.5844C19.8617 12.0457 20.4574 8.82013 20.3448 6.96209C20.3106 6.39636 21.0491 5.60896 21.9945 5.20338ZM13.4408 10.2484C14.3861 9.84015 15.1837 9.96624 15.2225 10.53C15.3014 11.6771 14.959 13.6135 13.6508 15.7924C12.3177 18.0129 9.92712 20.5576 5.9597 22.6637C5.03248 23.1559 4.12873 23.1559 3.94111 22.6637C3.75349 22.1715 4.35305 21.3734 5.28027 20.8812C7.96083 19.4583 9.58561 17.7666 10.5709 16.1254C11.5812 14.4427 11.8603 12.892 11.7996 12.0085C11.7608 11.4447 12.4956 10.6567 13.4408 10.2484ZM5.59677 15.4705C5.07123 15.4705 4.36256 15.8467 4.01391 16.3108C3.66526 16.7749 3.80866 17.1511 4.3342 17.1511C4.85974 17.1511 5.5684 16.7749 5.91705 16.3108C6.2657 15.8467 6.12231 15.4705 5.59677 15.4705ZM1.1592 16.3108C2.5538 14.4546 5.38847 12.9498 7.49062 12.9498C9.59277 12.9498 10.1664 14.4546 8.77176 16.3108C7.37717 18.167 4.54249 19.6718 2.44034 19.6718C0.338193 19.6718 -0.235393 18.167 1.1592 16.3108Z" fill="#424242"/>
</svg>
