<svg width="26" height="36" viewBox="0 0 26 36" fill="none" xmlns="http://www.w3.org/2000/svg">
<path fill-rule="evenodd" clip-rule="evenodd" d="M16.6424 1.18579C17.2198 0.751955 18.0744 0.892362 18.5512 1.4994C21.0898 4.73163 24.2336 10.2444 25.4712 16.3847C26.7173 22.5671 26.0377 29.4687 20.7684 35.207C20.2807 35.738 19.4247 35.7437 18.8564 35.2196C18.2881 34.6955 18.2227 33.8401 18.7103 33.309C23.306 28.3044 23.937 22.3102 22.8137 16.7371C21.682 11.122 18.7764 6.01968 16.46 3.07044C15.9833 2.46341 16.0649 1.61962 16.6424 1.18579ZM11.1255 6.14053C11.7023 5.7058 12.557 5.84496 13.0346 6.45135C14.8261 8.72583 17.0391 12.5943 17.9116 16.9142C18.7926 21.2767 18.313 26.1812 14.5595 30.2549C14.071 30.7852 13.2149 30.7894 12.6473 30.2645C12.0798 29.7396 12.0157 28.8842 12.5043 28.354C15.5821 25.0135 16.0117 21.0181 15.2542 17.2677C14.4882 13.4746 12.5147 10.0172 10.946 8.02565C10.4684 7.41926 10.5487 6.57526 11.1255 6.14053ZM6.98933 11.5482C7.56381 11.1106 8.41893 11.2457 8.89929 11.85C9.87664 13.0796 11.0758 15.1551 11.5506 17.4907C12.0345 19.8708 11.7713 22.5983 9.66881 24.8558C9.17744 25.3834 8.321 25.3834 7.75591 24.8558C7.19082 24.3282 7.13106 23.4728 7.62243 22.9453C9.04299 21.42 9.25164 19.6068 8.89401 17.8476C8.52733 16.044 7.57168 14.3818 6.81891 13.4348C6.33854 12.8304 6.41484 11.9858 6.98933 11.5482ZM3.66496 17.1457C3.16694 17.1457 2.79138 17.5489 2.82613 18.0463C2.86088 18.5437 3.29278 18.947 3.7908 18.947C4.28882 18.947 4.66438 18.5437 4.62963 18.0463C4.59488 17.5489 4.16298 17.1457 3.66496 17.1457ZM0.12088 18.0463C-0.0181239 16.0566 1.4841 14.4437 3.47619 14.4437C5.46828 14.4437 7.19588 16.0566 7.33488 18.0463C7.47388 20.036 5.97166 21.6489 3.97957 21.6489C1.98748 21.6489 0.259883 20.036 0.12088 18.0463Z" fill="white"/>
</svg>
