<svg width="139" height="33" viewBox="0 0 139 33" fill="none" xmlns="http://www.w3.org/2000/svg">
<path d="M1.04498 1.96477C0.696993 2.31994 0.495605 2.87291 0.495605 3.58903V29.1324C0.495605 29.8485 0.696993 30.4015 1.04498 30.7566L1.13087 30.8346L15.8115 16.5267V16.1889L1.13087 1.88104L1.04498 1.96477Z" fill="white"/>
<path d="M22.4765 21.2984L17.5884 16.5267V16.1889L22.4825 11.4172L22.592 11.4793L28.3879 14.6946C30.0419 15.607 30.0419 17.1086 28.3879 18.0268L22.592 21.2363L22.4765 21.2984Z" fill="white"/>
<path d="M21.7036 22.1248L16.7 17.2463L1.93345 31.6451C2.48282 32.2082 3.37871 32.276 4.3975 31.713L21.7036 22.1248Z" fill="white"/>
<path d="M21.7036 10.5908L4.3975 1.00267C3.37871 0.445372 2.48282 0.513228 1.93345 1.0763L16.7 15.4693L21.7036 10.5908Z" fill="white"/>
<path d="M45.7444 5.08912C45.7444 6.05356 45.4482 6.82599 44.8648 7.40206C44.194 8.08496 43.3203 8.42858 42.2497 8.42858C41.2265 8.42858 40.3528 8.07919 39.6361 7.3905C38.9179 6.69171 38.5595 5.83411 38.5595 4.80758C38.5595 3.78106 38.9179 2.92345 39.6361 2.23044C40.3528 1.53598 41.2265 1.18658 42.2497 1.18658C42.7591 1.18658 43.2448 1.28909 43.7083 1.47967C44.1703 1.67169 44.5464 1.93157 44.8189 2.25209L44.1999 2.86137C43.7246 2.31418 43.0775 2.04419 42.2497 2.04419C41.5034 2.04419 40.8563 2.29829 40.3069 2.81084C39.7634 3.32482 39.491 3.9904 39.491 4.80758C39.491 5.62476 39.7634 6.29612 40.3069 6.8101C40.8563 7.31687 41.5034 7.57675 42.2497 7.57675C43.0419 7.57675 43.7083 7.31687 44.234 6.80433C44.5805 6.46504 44.7774 5.99726 44.8292 5.39953H42.2497V4.56503H45.6911C45.7325 4.7455 45.7444 4.9202 45.7444 5.08912Z" fill="white"/>
<path d="M51.2041 2.19578H47.9715V4.39032H50.8857V5.22483H47.9715V7.41937H51.2041V8.26976H47.0564V1.34539H51.2041V2.19578Z" fill="white"/>
<path d="M55.0571 8.26976H54.142V2.19578H52.1592V1.34539H57.0414V2.19578H55.0571V8.26976Z" fill="white"/>
<path d="M60.5746 8.26976V1.34539H61.4883V8.26976H60.5746Z" fill="white"/>
<path d="M65.5382 8.26976H64.6305V2.19578H62.6403V1.34539H67.5284V2.19578H65.5382V8.26976Z" fill="white"/>
<path d="M76.7716 7.37895C76.0711 8.07919 75.2034 8.42858 74.1683 8.42858C73.1273 8.42858 72.2596 8.07919 71.5591 7.37895C70.8602 6.68017 70.5122 5.82256 70.5122 4.80758C70.5122 3.79261 70.8602 2.935 71.5591 2.23621C72.2596 1.53598 73.1273 1.18658 74.1683 1.18658C75.1975 1.18658 76.0652 1.53598 76.7656 2.24199C77.4705 2.94655 77.8185 3.79838 77.8185 4.80758C77.8185 5.82256 77.4705 6.68017 76.7716 7.37895ZM72.2359 6.79855C72.763 7.31687 73.4042 7.57675 74.1683 7.57675C74.9265 7.57675 75.5736 7.31687 76.0948 6.79855C76.6205 6.28024 76.8871 5.61466 76.8871 4.80758C76.8871 4.00051 76.6205 3.33493 76.0948 2.81661C75.5736 2.2983 74.9265 2.03841 74.1683 2.03841C73.4042 2.03841 72.763 2.2983 72.2359 2.81661C71.7102 3.33493 71.4436 4.00051 71.4436 4.80758C71.4436 5.61466 71.7102 6.28024 72.2359 6.79855Z" fill="white"/>
<path d="M79.1023 8.26976V1.34539H80.2129L83.6662 6.73069H83.7061L83.6662 5.39952V1.34539H84.5798V8.26976H83.6262L80.0101 2.61881H79.9701L80.0101 3.95575V8.26976H79.1023Z" fill="white"/>
<path d="M70.2871 18.382C67.5047 18.382 65.2317 20.4466 65.2317 23.2952C65.2317 26.1207 67.5047 28.2069 70.2871 28.2069C73.0755 28.2069 75.3485 26.1207 75.3485 23.2952C75.3485 20.4466 73.0755 18.382 70.2871 18.382ZM70.2871 26.2723C68.7604 26.2723 67.447 25.0436 67.447 23.2952C67.447 21.5237 68.7604 20.3167 70.2871 20.3167C71.8138 20.3167 73.1332 21.5237 73.1332 23.2952C73.1332 25.0436 71.8138 26.2723 70.2871 26.2723ZM59.2567 18.382C56.4683 18.382 54.2012 20.4466 54.2012 23.2952C54.2012 26.1207 56.4683 28.2069 59.2567 28.2069C62.0435 28.2069 64.3121 26.1207 64.3121 23.2952C64.3121 20.4466 62.0435 18.382 59.2567 18.382ZM59.2567 26.2723C57.7285 26.2723 56.4106 25.0436 56.4106 23.2952C56.4106 21.5237 57.7285 20.3167 59.2567 20.3167C60.7834 20.3167 62.0968 21.5237 62.0968 23.2952C62.0968 25.0436 60.7834 26.2723 59.2567 26.2723ZM46.1309 19.8879V21.9756H51.2441C51.0945 23.1422 50.6947 23.9998 50.0816 24.5975C49.3353 25.3194 48.1729 26.1207 46.1309 26.1207C42.9842 26.1207 40.5201 23.6446 40.5201 20.5766C40.5201 17.5085 42.9842 15.0324 46.1309 15.0324C47.8323 15.0324 49.0703 15.6807 49.9839 16.521L51.4928 15.0498C50.2149 13.8601 48.515 12.9462 46.1309 12.9462C41.8158 12.9462 38.1893 16.3694 38.1893 20.5766C38.1893 24.7837 41.8158 28.2069 46.1309 28.2069C48.4631 28.2069 50.2149 27.4619 51.5921 26.0644C53.0033 24.6884 53.4431 22.7538 53.4431 21.1916C53.4431 20.7065 53.4016 20.2604 53.3276 19.8879H46.1309ZM99.8039 21.5064C99.3878 20.4076 98.104 18.382 95.4889 18.382C92.8975 18.382 90.7399 20.373 90.7399 23.2952C90.7399 26.047 92.8752 28.2069 95.7376 28.2069C98.0521 28.2069 99.3878 26.831 99.9372 26.0297L98.2195 24.9137C97.6464 25.7309 96.866 26.2723 95.7376 26.2723C94.6167 26.2723 93.8126 25.7713 93.2973 24.7837L100.036 22.0651L99.8039 21.5064ZM92.933 23.1422C92.8753 21.2479 94.4419 20.2777 95.5644 20.2777C96.444 20.2777 97.1903 20.7065 97.4391 21.3201L92.933 23.1422ZM87.4555 27.9081H89.6708V13.4703H87.4555V27.9081ZM83.8276 19.4764H83.7535C83.256 18.9018 82.3068 18.382 81.1044 18.382C78.5811 18.382 76.274 20.5419 76.274 23.3111C76.274 26.0644 78.5811 28.2069 81.1044 28.2069C82.3068 28.2069 83.256 27.6828 83.7535 27.0909H83.8276V27.7955C83.8276 29.6738 82.7984 30.683 81.1384 30.683C79.785 30.683 78.9454 29.7301 78.5989 28.9288L76.6723 29.7128C77.2276 31.0151 78.6981 32.6177 81.1384 32.6177C83.7358 32.6177 85.9273 31.1277 85.9273 27.5024V18.6809H83.8276V19.4764ZM81.2939 26.2723C79.7672 26.2723 78.4893 25.0263 78.4893 23.3111C78.4893 21.58 79.7672 20.3167 81.2939 20.3167C82.7984 20.3167 83.9845 21.58 83.9845 23.3111C83.9845 25.0263 82.7984 26.2723 81.2939 26.2723ZM110.175 13.4703H104.877V27.9081H107.086V22.4376H110.175C112.629 22.4376 115.035 20.7065 115.035 17.9532C115.035 15.2014 112.623 13.4703 110.175 13.4703ZM110.233 20.4293H107.086V15.4786H110.233C111.883 15.4786 112.825 16.8141 112.825 17.9532C112.825 19.0707 111.883 20.4293 110.233 20.4293ZM123.891 18.3546C122.294 18.3546 120.634 19.0418 119.952 20.565L121.912 21.3663C122.334 20.565 123.11 20.3051 123.931 20.3051C125.077 20.3051 126.239 20.9765 126.257 22.1618V22.3134C125.857 22.0882 125.001 21.7547 123.948 21.7547C121.837 21.7547 119.685 22.8881 119.685 25.0032C119.685 26.9379 121.415 28.1838 123.359 28.1838C124.846 28.1838 125.666 27.5298 126.181 26.7689H126.257V27.885H128.391V22.3466C128.391 19.7868 126.43 18.3546 123.891 18.3546ZM123.624 26.2665C122.901 26.2665 121.894 25.9171 121.894 25.0436C121.894 23.9261 123.15 23.4973 124.237 23.4973C125.21 23.4973 125.666 23.7067 126.257 23.9824C126.084 25.3194 124.903 26.2665 123.624 26.2665ZM136.165 18.6708L133.625 24.9296H133.55L130.924 18.6708H128.542L132.487 27.4172L130.236 32.2842H132.544L138.623 18.6708H136.165ZM116.25 27.9081H118.465V13.4703H116.25V27.9081Z" fill="white"/>
</svg>
