<svg width="34" height="33" viewBox="0 0 34 33" fill="none" xmlns="http://www.w3.org/2000/svg">
<path fill-rule="evenodd" clip-rule="evenodd" d="M31.6553 0.51252C32.6008 0.107779 33.3938 0.238772 33.4267 0.8051C33.6018 3.82059 32.6488 8.96366 29.1982 14.6923C25.724 20.4601 19.6605 26.8989 9.65499 32.2524C8.72903 32.7478 7.82136 32.7531 7.62764 32.2641C7.43393 31.7752 8.02753 30.9771 8.95349 30.4817C17.6799 25.8126 22.9891 20.2204 26.1209 15.021C29.2763 9.78246 30.1627 5.02227 30.003 2.2708C29.9701 1.70447 30.7099 0.917261 31.6553 0.51252ZM21.9955 5.13502C22.9409 4.72944 23.7351 4.85926 23.7693 5.42499C23.8979 7.54696 23.2364 11.156 20.8107 15.1863C18.3611 19.2562 14.0557 23.8318 6.93922 27.6324C6.01296 28.1271 5.10622 28.1311 4.91396 27.6413C4.72169 27.1516 5.31672 26.3536 6.24298 25.8589C12.0785 22.7425 15.6269 19.015 17.7328 15.516C19.8627 11.9773 20.4584 8.75178 20.3458 6.89373C20.3115 6.328 21.0501 5.5406 21.9955 5.13502ZM13.4418 10.1801C14.387 9.77179 15.1847 9.89788 15.2235 10.4617C15.3024 11.6088 14.96 13.5451 13.6518 15.7241C12.3187 17.9446 9.9281 20.4892 5.96068 22.5953C5.03346 23.0875 4.12971 23.0875 3.94209 22.5953C3.75447 22.1031 4.35403 21.3051 5.28125 20.8129C7.96181 19.3899 9.58659 17.6983 10.5719 16.0571C11.5822 14.3744 11.8613 12.8236 11.8006 11.9401C11.7618 11.3763 12.4966 10.5883 13.4418 10.1801ZM5.59774 15.4022C5.07221 15.4022 4.36354 15.7784 4.01489 16.2424C3.66624 16.7065 3.80964 17.0827 4.33517 17.0827C4.86071 17.0827 5.56938 16.7065 5.91803 16.2424C6.26668 15.7784 6.12328 15.4022 5.59774 15.4022ZM1.16018 16.2424C2.55478 14.3862 5.38945 12.8814 7.4916 12.8814C9.59375 12.8814 10.1673 14.3862 8.77274 16.2424C7.37814 18.0987 4.54347 19.6035 2.44132 19.6035C0.33917 19.6035 -0.234417 18.0987 1.16018 16.2424Z" fill="#1A1E1C"/>
</svg>
