<svg width="34" height="30" viewBox="0 0 34 30" fill="none" xmlns="http://www.w3.org/2000/svg">
<path fill-rule="evenodd" clip-rule="evenodd" d="M6.81495 0.276671C7.10914 -0.0967358 8.05545 0.0241158 8.92859 0.546601C13.5777 3.32864 20.321 8.07355 25.568 13.3587C30.8509 18.6799 34.6777 24.6203 33.1552 29.5594C33.0143 30.0164 32.162 30.0213 31.2515 29.5702C30.3409 29.1191 29.717 28.3828 29.8579 27.9257C31.1858 23.6181 27.9028 18.4588 23.1406 13.662C18.3425 8.82896 12.1053 4.43729 7.86322 1.89883C6.99008 1.37634 6.52075 0.650079 6.81495 0.276671ZM4.53331 4.54131C4.82621 4.16713 5.77182 4.2869 6.64539 4.80883C9.92204 6.76653 14.6609 10.0962 18.3541 13.8144C22.0837 17.5693 24.8064 21.7907 23.7129 25.297C23.5706 25.7534 22.7173 25.7571 21.807 25.3052C20.8967 24.8534 20.2741 24.1172 20.4164 23.6608C21.3131 20.7856 19.1339 17.3467 15.9276 14.1186C12.6848 10.8539 8.45383 7.87807 5.58471 6.16387C4.71114 5.64194 4.24041 4.91549 4.53331 4.54131ZM3.92809 9.19578C4.21683 8.81912 5.1602 8.93544 6.03515 9.45559C7.81534 10.5139 10.3697 12.3003 12.3696 14.3106C14.4075 16.3592 15.9253 18.7068 15.2968 20.6499C15.15 21.104 14.2935 21.104 13.3839 20.6499C12.4744 20.1958 11.8561 19.4595 12.003 19.0054C12.4276 17.6926 11.4523 16.132 9.94601 14.6178C8.40163 13.0654 6.36065 11.6347 4.98952 10.8196C4.11456 10.2994 3.63935 9.57244 3.92809 9.19578ZM4.25861 14.0136C3.76058 14.0136 3.64832 14.3607 4.00786 14.7888C4.3674 15.217 5.06259 15.564 5.56062 15.564C6.05864 15.564 6.1709 15.217 5.81136 14.7888C5.45182 14.3607 4.75663 14.0136 4.25861 14.0136ZM1.30261 14.7888C-0.135548 13.0763 0.313501 11.688 2.30559 11.688C4.29768 11.688 7.07845 13.0763 8.51661 14.7888C9.95477 16.5014 9.50572 17.8897 7.51363 17.8897C5.52154 17.8897 2.74077 16.5014 1.30261 14.7888Z" fill="#424242"/>
</svg>
